<svg width="200" height="200" viewBox="0 0 200 200" fill="none" xmlns="http://www.w3.org/2000/svg">
<path d="M87.6469 7.61716C87.402 7.61911 87.1586 7.63083 86.9145 7.64177C77.9629 8.03395 71.3266 14.1793 69.3117 21.35C67.4383 28.0179 69.1289 35.4086 77.7836 40.8449C68.1023 42.83 60.3688 50.2968 58.0082 59.8386L11.0238 103.955L145.692 84.9363C143.861 80.3797 142.788 75.3449 142.676 70.1414C137.843 71.5066 132.74 70.8523 128.736 68.2496C123.859 65.0797 121.19 58.7203 122.815 51.4644C118.518 49.9547 114.88 47.1136 111.512 43.591C110.469 44.3461 109.325 45.0449 108.045 45.7277C106.129 46.7472 103.963 47.6793 101.636 48.4738C99.5093 46.2031 96.9909 44.334 94.2016 42.9562C94.9885 42.7983 95.7702 42.615 96.5453 42.4066C99.5609 41.598 102.402 40.4593 104.614 39.2816C106.827 38.1035 108.411 36.7465 108.777 36.2543L111.523 32.5675L114.502 36.0832C119.134 41.5683 122.973 44.5871 127.941 45.2746L132.715 45.9347L130.786 50.3527C127.916 56.9238 129.723 60.1769 132.715 62.1207C135.706 64.0652 140.593 64.1832 144.409 61.3277L151.33 56.1402L150.22 64.7215C148.567 77.409 154.666 90.0879 162.659 95.1414C166.655 97.6679 170.885 98.4453 175.463 96.9109C180.043 95.3769 185.199 91.282 190.125 83.0808C198.595 68.9742 184.216 52.6218 171.618 57.0554L166.638 58.8133L166.76 53.5273C167.116 38.9507 153.348 27.0343 137.719 30.4687L134.423 31.189L133.435 27.9664C131.877 22.8765 128.67 19.4918 125.158 18.1031C121.647 16.714 117.795 17.0472 113.769 20.3004L110.656 22.8144L108.435 19.4824C103.224 11.6679 95.2395 7.55466 87.6465 7.61716H87.6469ZM82.9223 47.6195C83.534 47.6195 84.134 47.6476 84.7293 47.7054C81.534 49.1882 79.3215 52.4215 79.3215 56.1765C79.3215 61.3343 83.5023 65.5152 88.6602 65.5152C93.8176 65.5152 97.998 61.334 97.998 56.1765C97.998 55.9242 97.9809 55.6789 97.9613 55.4316C100.051 58.4129 101.282 62.041 101.282 65.9785C101.282 68.3793 100.817 70.6687 99.9887 72.7656C89.6027 80.2175 79.2211 80.589 68.8363 77.7832C66.1664 74.5968 64.5629 70.4863 64.5629 65.9785C64.5629 55.7976 72.7414 47.6195 82.9223 47.6195ZM149.268 91.8211L7.80117 111.78V118.262L154.065 97.6195C152.286 95.9086 150.679 93.9586 149.268 91.8211H149.268ZM187.22 98.2175C184.786 100.365 182.267 101.982 179.688 103.1L179.395 169.165L183.936 168.701L187.22 168.371V98.2187L187.22 98.2175ZM163.563 103.65L7.80117 125.647V146.252L19.8492 139.551L21.6434 138.55L23.4258 139.575C29.8613 143.24 34.541 143.852 39.1113 142.627C43.6816 141.401 48.459 137.981 53.9062 132.52L55.4199 131.006L57.4824 131.592C66.8625 134.25 72.3477 135.307 76.6481 134.57C80.9481 133.833 84.9465 131.288 91.577 125.281L94.0301 123.059L96.4715 125.281C99.5004 128.027 100.883 128.289 101.343 128.271C101.802 128.254 102.612 127.786 104.443 126.575C106.274 125.364 109.073 123.743 112.853 123.584C116.09 123.449 119.905 124.381 124.56 126.587C127.831 123.634 130.425 121.67 133.837 121.277C137.194 120.891 140.015 122.159 143.566 124.048C146.193 121.951 148.841 120.773 151.392 120.471C154.618 120.089 157.333 120.909 159.595 121.545C161.857 122.182 163.702 122.67 165.576 122.546C167.395 122.425 169.443 121.806 172.314 119.617L172.375 104.907C169.336 105.106 166.356 104.646 163.563 103.65L163.563 103.65ZM152.808 127.685C152.618 127.69 152.43 127.701 152.247 127.722C150.782 127.895 149.153 128.52 146.656 131.03L144.739 132.959L142.335 131.664C137.688 129.158 135.634 128.416 134.669 128.528C133.704 128.638 131.783 129.817 127.675 133.618L125.758 135.388L123.463 134.155C118.371 131.413 115.176 130.8 113.161 130.884C111.145 130.968 110.036 131.619 108.473 132.653C106.91 133.687 104.86 135.447 101.625 135.571C99.15 135.665 96.7242 134.684 94.0809 132.739C88.2887 137.72 83.452 140.805 77.8816 141.76C72.0231 142.764 65.9258 141.482 57.4965 139.148C52.1918 144.235 46.9602 148.084 41.0043 149.682C35.0012 151.292 28.525 150.364 21.6684 146.886L7.80117 154.601V161.511C20.2465 155.836 32.5902 156.029 45.2402 159.363C49.5184 153.503 54.8563 149.559 61.5734 148.51C68.257 147.467 75.9156 149.202 85.218 153.076C86.9305 149.394 89.0305 146.852 91.6758 145.398C95.1133 143.507 98.7098 143.786 101.771 144.213C107.895 145.068 112.455 146.789 118.642 141.698L120.302 140.331L122.304 141.124C131.428 144.722 142.073 145.518 151.064 138.195L153.333 136.352L155.629 138.159C161.593 142.841 167.199 142.56 172.23 138.903L172.279 128.161C170.109 129.178 168.018 129.703 166.054 129.833C162.679 130.057 159.868 129.209 157.619 128.576C155.65 128.022 154.138 127.653 152.809 127.685H152.808ZM153.48 145.508C143.171 152.565 131.216 151.925 121.51 148.56C113.624 153.902 105.707 152.13 100.77 151.441C98.1164 151.069 96.4668 151.1 95.2035 151.794C93.9391 152.49 92.3168 154.22 90.6988 159.009L89.4047 162.841L85.718 161.169C75.3313 156.439 67.9418 154.894 62.6957 155.712C57.4496 156.532 53.7371 159.436 49.8781 165.491L48.4016 167.81L45.7648 167.029C32.0734 162.978 20.5109 162.692 7.80078 169.666V186.609L11.8164 186.205L172.095 169.909L172.193 147.081C166.317 149.452 159.566 149.204 153.479 145.507L153.48 145.508Z" fill="#80020A"/>
</svg>
