<svg width="200" height="200" viewBox="0 0 200 200" fill="none" xmlns="http://www.w3.org/2000/svg">
<path d="M66.666 12.5C66.666 10.2898 65.788 8.17021 64.2252 6.6074C62.6624 5.0446 60.5428 4.16663 58.3327 4.16663C56.1225 4.16663 54.0029 5.0446 52.4401 6.6074C50.8773 8.17021 49.9993 10.2898 49.9993 12.5V20.9833C50.0327 21.35 50.041 21.5083 48.2743 23.275L48.1077 23.4416C45.8827 25.6583 41.666 29.8583 41.666 37.5V45.8333C41.666 48.0434 42.544 50.163 44.1068 51.7258C45.6696 53.2886 47.7892 54.1666 49.9993 54.1666C52.2095 54.1666 54.3291 53.2886 55.8919 51.7258C57.4547 50.163 58.3327 48.0434 58.3327 45.8333V37.35C58.2993 36.9833 58.291 36.825 60.0577 35.0583L60.2243 34.8916C62.4493 32.675 66.666 28.475 66.666 20.8333V12.5ZM158.333 12.5C158.333 10.2898 157.455 8.17021 155.892 6.6074C154.329 5.0446 152.209 4.16663 149.999 4.16663C147.789 4.16663 145.67 5.0446 144.107 6.6074C142.544 8.17021 141.666 10.2898 141.666 12.5V20.9833C141.699 21.35 141.708 21.5083 139.941 23.275L139.774 23.4416C137.549 25.6583 133.333 29.8583 133.333 37.5V45.8333C133.333 48.0434 134.211 50.163 135.773 51.7258C137.336 53.2886 139.456 54.1666 141.666 54.1666C143.876 54.1666 145.996 53.2886 147.559 51.7258C149.121 50.163 149.999 48.0434 149.999 45.8333V37.35C149.966 36.9833 149.958 36.825 151.724 35.0583L151.891 34.8916C154.116 32.675 158.333 28.475 158.333 20.8333V12.5ZM104.166 4.16663C106.376 4.16663 108.496 5.0446 110.059 6.6074C111.621 8.17021 112.499 10.2898 112.499 12.5V20.8333C112.499 28.4666 108.283 32.6666 106.058 34.8916L105.891 35.0583C104.124 36.825 104.141 36.9833 104.158 37.35L104.166 37.5V45.8333C104.166 48.0434 103.288 50.163 101.725 51.7258C100.162 53.2886 98.0428 54.1666 95.8327 54.1666C93.6225 54.1666 91.5029 53.2886 89.9401 51.7258C88.3773 50.163 87.4993 48.0434 87.4993 45.8333V37.5C87.4993 29.8666 91.716 25.6666 93.941 23.4416L94.1077 23.275C95.8743 21.5083 95.8577 21.35 95.841 20.9833L95.8327 20.8333V12.5C95.8327 10.2898 96.7107 8.17021 98.2735 6.6074C99.8363 5.0446 101.956 4.16663 104.166 4.16663ZM33.3327 83.3333H166.666C166.666 101.014 159.642 117.971 147.14 130.474C134.637 142.976 117.68 150 99.9993 150C82.3182 150 65.3613 142.976 52.8589 130.474C40.3565 117.971 33.3327 101.014 33.3327 83.3333ZM24.9993 66.6666C22.7892 66.6666 20.6696 67.5446 19.1068 69.1074C17.544 70.6702 16.666 72.7898 16.666 75V83.3333C16.666 117.5 37.2327 146.875 66.666 159.733V166.667C66.666 168.877 67.544 170.996 69.1068 172.559C70.6696 174.122 72.7892 175 74.9993 175H124.999C127.209 175 129.329 174.122 130.892 172.559C132.455 170.996 133.333 168.877 133.333 166.667V159.733C162.766 146.875 183.333 117.508 183.333 83.3333V75C183.333 72.7898 182.455 70.6702 180.892 69.1074C179.329 67.5446 177.209 66.6666 174.999 66.6666H24.9993Z" fill="#80020A"/>
</svg>
